<svg fill="#FFFFFF" xmlns="http://www.w3.org/2000/svg"  viewBox="0 0 48 48" width="48px" height="48px"><path d="M 24.037109 2.5039062 A 1.50015 1.50015 0 0 0 22.501953 3.9335938 L 22.460938 4.8339844 A 1.50015 1.50015 0 0 0 22.460938 4.8398438 C 22.08138 14.421487 14.421488 22.081375 4.8398438 22.460938 A 1.50015 1.50015 0 0 0 4.8339844 22.460938 L 3.9335938 22.501953 A 1.50015 1.50015 0 0 0 3.9335938 25.498047 L 4.8339844 25.539062 A 1.50015 1.50015 0 0 0 4.8417969 25.539062 C 11.283475 25.788946 16.859291 29.348956 19.9375 34.5625 A 1.5003159 1.5003159 0 1 0 22.521484 33.037109 C 20.071388 28.887397 16.19395 25.754583 11.632812 24.023438 C 17.340153 21.86112 21.843852 17.363808 24.013672 11.660156 C 24.557689 13.091744 25.149263 14.505448 25.974609 15.769531 A 1.50015 1.50015 0 1 0 28.486328 14.130859 C 26.730699 11.441974 25.668656 8.268709 25.539062 4.84375 A 1.50015 1.50015 0 0 0 25.539062 4.8339844 L 25.498047 3.9335938 A 1.50015 1.50015 0 0 0 24.037109 2.5039062 z M 32.654297 18.988281 A 1.50015 1.50015 0 0 0 31.802734 21.736328 C 33.182102 22.682048 34.729787 23.386123 36.320312 23.992188 C 28.529509 26.964557 22.88754 34.293385 22.541016 43.041016 L 22.501953 43.933594 A 1.50015 1.50015 0 1 0 25.498047 44.066406 L 25.539062 43.166016 A 1.50015 1.50015 0 0 0 25.539062 43.160156 C 25.918626 33.578512 33.578512 25.918626 43.160156 25.539062 A 1.50015 1.50015 0 0 0 43.166016 25.539062 L 44.066406 25.498047 A 1.50015 1.50015 0 0 0 44.066406 22.501953 L 43.166016 22.460938 A 1.50015 1.50015 0 0 0 43.158203 22.460938 C 39.577178 22.322138 36.262624 21.159118 33.498047 19.263672 A 1.50015 1.50015 0 0 0 32.654297 18.988281 z"/></svg>